<?xml version="1.0" standalone="no"?>
<!DOCTYPE svg PUBLIC "-//W3C//DTD SVG 20010904//EN"
 "http://www.w3.org/TR/2001/REC-SVG-20010904/DTD/svg10.dtd">
<svg version="1.0" xmlns="http://www.w3.org/2000/svg"
 width="1080.000000pt" height="1130.000000pt" viewBox="0 0 1080.000000 1130.000000"
 preserveAspectRatio="xMidYMid meet">

<g transform="translate(0.000000,1130.000000) scale(0.100000,-0.100000)"
fill="#000000" stroke="none">
<path d="M0 5650 l0 -5650 5400 0 5400 0 0 5650 0 5650 -5400 0 -5400 0 0
-5650z m5465 3799 c22 -6 48 -15 57 -20 10 -5 23 -9 29 -9 7 0 46 -17 88 -37
122 -60 249 -163 201 -163 -5 0 -10 5 -10 11 0 5 -4 8 -9 5 -5 -3 -7 -15 -4
-26 4 -15 9 -17 23 -10 35 19 48 10 82 -57 18 -38 38 -68 43 -68 6 0 11 -10
13 -22 2 -13 -1 -23 -6 -23 -6 0 -9 -11 -8 -25 1 -30 16 -34 16 -5 0 28 18 25
32 -5 6 -14 15 -25 21 -25 5 0 7 -14 5 -30 -3 -17 -1 -33 4 -36 4 -3 8 -14 8
-25 0 -28 -23 -19 -31 12 -4 13 -7 17 -8 8 -1 -9 -7 -22 -15 -28 -11 -10 -17
-6 -30 20 -9 18 -16 38 -16 44 0 7 -16 36 -35 64 -19 28 -35 54 -35 58 0 16
-184 193 -200 193 -11 0 -69 31 -75 39 -2 5 -25 14 -50 21 -25 7 -48 17 -51
21 -3 5 -20 9 -38 9 -17 0 -37 5 -43 11 -5 5 -21 7 -34 4 -22 -5 -24 -11 -21
-43 2 -20 8 -47 14 -60 9 -17 8 -39 -2 -90 -7 -37 -17 -72 -22 -78 -5 -7 -31
-12 -59 -12 -45 0 -51 3 -60 27 -6 14 -9 74 -8 133 4 111 -6 147 -33 120 -7
-7 -24 -12 -39 -12 -15 0 -31 -4 -34 -10 -3 -5 -19 -10 -35 -10 -16 0 -31 -4
-34 -9 -3 -5 -41 -26 -83 -47 -58 -29 -98 -59 -153 -115 -70 -70 -160 -202
-160 -233 0 -7 -8 -31 -17 -52 -19 -45 -33 -113 -40 -202 -4 -48 -1 -69 12
-88 35 -54 65 -189 65 -298 0 -107 -9 -152 -43 -199 -18 -26 -21 -27 -36 -13
-10 9 -21 16 -26 16 -4 0 -23 11 -40 25 -18 13 -35 22 -38 19 -3 -4 -12 -1
-19 5 -22 19 -88 61 -96 61 -4 0 -23 14 -42 31 -19 16 -48 37 -65 46 -43 23
-60 53 -30 53 8 0 15 5 15 10 0 13 -13 13 -27 -1 -9 -9 -21 -4 -48 19 -42 37
-81 49 -106 33 -10 -6 -38 -11 -61 -11 -86 0 -210 -35 -293 -82 -11 -7 -32
-18 -47 -26 -16 -7 -28 -18 -28 -23 0 -5 -6 -9 -14 -9 -8 0 -21 -8 -28 -17 -7
-10 -35 -36 -63 -58 -27 -22 -66 -55 -86 -75 -20 -19 -64 -60 -99 -90 -34 -30
-73 -65 -86 -77 -14 -13 -29 -23 -34 -23 -4 0 -10 -4 -12 -8 -4 -11 -146 -102
-158 -102 -6 0 -10 -4 -10 -10 0 -5 -5 -10 -11 -10 -5 0 -30 -9 -55 -20 -48
-22 -56 -46 -26 -73 24 -22 109 -57 137 -57 13 0 26 -4 30 -10 3 -5 32 -12 65
-16 33 -4 60 -10 60 -13 0 -17 -72 -141 -82 -141 -5 0 -8 -8 -8 -17 0 -10 -16
-38 -35 -63 -19 -25 -53 -72 -76 -104 -39 -55 -43 -58 -55 -41 -14 18 -14 18
-29 -1 -12 -17 -12 -20 2 -32 15 -11 13 -18 -27 -75 -24 -34 -47 -63 -52 -65
-4 -2 -8 -8 -8 -14 0 -6 -17 -30 -37 -52 -64 -71 -93 -106 -93 -111 0 -11 -35
-45 -47 -45 -19 0 -17 3 32 56 25 27 45 54 45 61 0 6 9 15 20 18 11 3 20 12
20 19 0 7 9 22 20 34 11 12 20 29 19 39 0 15 -2 15 -16 -4 -19 -28 -33 -29
-33 -3 0 29 -28 25 -36 -6 -5 -18 -10 -22 -17 -15 -14 14 29 98 54 106 8 3 24
22 35 42 25 47 40 52 46 13 4 -26 2 -30 -19 -30 -24 0 -31 -14 -12 -25 6 -4 8
-13 5 -20 -2 -7 -2 -16 1 -19 7 -7 27 14 36 37 3 9 14 17 22 17 18 0 14 28
-10 65 -11 17 -9 27 14 70 14 27 30 54 34 60 77 100 107 142 107 152 0 7 7 10
15 7 12 -5 15 2 14 27 0 32 -1 33 -11 11 -10 -19 -16 -21 -47 -16 -43 8 -120
48 -143 75 -9 10 -21 19 -26 19 -6 0 -38 27 -72 60 l-61 60 68 34 c116 58 157
81 205 114 26 18 51 32 57 32 5 0 18 10 28 23 19 22 31 31 86 65 28 17 42 29
183 162 38 36 92 83 119 105 28 22 58 47 68 56 10 9 41 29 70 44 29 16 54 31
57 35 8 10 112 49 150 56 19 4 43 11 53 16 10 5 51 9 92 9 41 0 77 4 80 10 7
11 122 12 127 2 2 -5 26 -26 53 -48 28 -22 55 -44 61 -50 65 -61 239 -169 261
-161 7 3 13 1 13 -4 0 -13 -38 -32 -50 -25 -6 3 -10 0 -10 -7 0 -7 -3 -23 -6
-34 -4 -16 0 -23 18 -29 55 -18 79 -22 84 -13 9 13 -15 28 -45 28 -24 0 -24 1
10 31 32 29 34 29 37 10 7 -43 28 -17 23 27 -1 6 3 12 9 12 5 0 10 11 10 25 0
18 -4 23 -15 19 -8 -4 -15 -12 -15 -20 0 -8 -9 -14 -19 -14 -16 0 -21 9 -26
48 -13 91 -37 198 -61 270 -23 68 -24 77 -13 160 6 48 15 97 20 110 5 13 9 36
9 52 0 16 4 31 9 34 5 3 12 18 16 33 12 48 75 174 90 180 8 3 15 11 15 18 0 6
8 21 18 32 65 74 83 92 131 126 48 35 70 48 137 86 60 33 183 73 274 90 42 8
179 -4 235 -20z m-415 -382 c0 -7 -6 -22 -14 -33 -28 -39 -49 -138 -50 -229 0
-77 3 -98 25 -145 30 -62 67 -106 80 -93 4 4 5 41 1 81 -10 88 0 115 58 165
48 40 113 55 201 43 65 -9 98 -24 129 -60 45 -53 51 -92 29 -189 -15 -66 0
-82 40 -43 54 52 81 123 81 214 0 86 -20 184 -51 244 -37 72 -21 76 48 14 26
-24 59 -65 73 -92 21 -42 25 -61 24 -139 -1 -58 -7 -103 -18 -127 -32 -74 29
-40 65 37 37 79 51 -7 15 -93 -54 -129 -67 -197 -67 -352 0 -80 5 -178 11
-218 9 -66 8 -78 -10 -120 -52 -117 -123 -198 -247 -282 -58 -39 -107 -69
-109 -67 -2 2 -5 66 -5 143 -1 177 33 382 73 431 21 26 115 81 143 85 28 3 29
5 30 53 0 47 -2 50 -40 72 -50 29 -54 28 -87 -2 -15 -14 -31 -25 -35 -26 -14
-1 -96 -63 -104 -79 -5 -8 -14 -37 -22 -65 l-14 -50 -17 40 c-10 22 -23 51
-30 64 -12 27 -142 120 -167 121 -9 0 -28 -9 -43 -21 -20 -16 -26 -29 -26 -58
0 -33 4 -39 38 -54 20 -9 58 -32 83 -51 43 -32 48 -40 67 -113 36 -137 62
-385 47 -452 -8 -39 -21 -39 -73 -1 -22 16 -56 36 -75 43 -56 24 -172 164
-218 265 -18 39 -19 51 -9 145 26 255 10 400 -61 554 -22 49 -26 127 -6 121 6
-3 18 -18 26 -34 17 -37 51 -74 67 -74 9 0 8 11 -3 43 -24 68 -28 156 -9 220
24 82 156 221 156 164z m1039 -367 c10 -101 2 -132 -25 -96 -10 14 -11 22 -3
27 6 4 11 20 9 35 -1 16 -2 44 -2 62 1 17 -4 32 -9 32 -10 0 -12 33 -2 44 14
14 22 -12 32 -104z m-57 -42 c7 -18 -2 -39 -13 -32 -12 7 -12 44 0 44 5 0 11
-6 13 -12z m6 -71 c2 -10 -3 -17 -12 -17 -10 0 -16 9 -16 21 0 24 23 21 28 -4z
m-42 -64 c-11 -11 -17 4 -9 23 7 18 8 18 11 1 2 -10 1 -21 -2 -24z m29 -32 c3
-5 1 -12 -5 -16 -5 -3 -10 1 -10 9 0 18 6 21 15 7z m32 -23 c-3 -7 -5 -2 -5
12 0 14 2 19 5 13 2 -7 2 -19 0 -25z m-80 0 c-3 -8 -6 -5 -6 6 -1 11 2 17 5
13 3 -3 4 -12 1 -19z m407 -52 c-6 -15 -24 -23 -24 -11 0 8 24 34 28 30 1 -1
0 -10 -4 -19z m-419 5 c3 -5 1 -12 -5 -16 -5 -3 -10 1 -10 9 0 18 6 21 15 7z
m508 -28 c-7 -2 -19 -2 -25 0 -7 3 -2 5 12 5 14 0 19 -2 13 -5z m-143 -17 c0
-7 -9 -16 -20 -19 -24 -6 -25 -3 -4 17 19 20 24 20 24 2z m597 -2 c-3 -3 -12
-4 -19 -1 -8 3 -5 6 6 6 11 1 17 -2 13 -5z m-910 -36 c-3 -8 -6 -5 -6 6 -1 11
2 17 5 13 3 -3 4 -12 1 -19z m-67 -2 c0 -8 -4 -18 -10 -21 -5 -3 -10 3 -10 14
0 12 5 21 10 21 6 0 10 -6 10 -14z m306 -18 c-10 -6 -20 -7 -24 -3 -9 8 20 25
31 18 5 -3 2 -10 -7 -15z m134 8 c0 -8 -7 -16 -15 -20 -13 -4 -14 -2 -5 14 13
23 20 26 20 6z m-373 -73 c-3 -10 -5 -4 -5 12 0 17 2 24 5 18 2 -7 2 -21 0
-30z m157 12 c-10 -8 -28 -15 -39 -15 -14 0 -10 5 15 19 39 21 54 19 24 -4z
m-217 -107 c-3 -8 -6 -5 -6 6 -1 11 2 17 5 13 3 -3 4 -12 1 -19z m157 -23 c-4
-8 -10 -15 -15 -15 -4 0 -6 7 -3 15 4 8 10 15 15 15 4 0 6 -7 3 -15z m-1965
-89 c53 -35 113 -72 134 -82 20 -10 37 -20 37 -24 0 -3 -35 -11 -78 -17 -92
-14 -149 -42 -211 -104 -44 -44 -153 -217 -240 -382 -63 -118 -163 -278 -243
-385 -80 -108 -276 -309 -383 -393 -147 -116 -418 -289 -432 -276 -3 3 61 75
142 159 232 241 439 496 599 738 128 193 305 525 289 541 -4 4 -37 1 -73 -7
-36 -7 -85 -13 -110 -13 l-45 0 39 32 c21 18 80 70 131 117 52 47 114 96 139
108 42 22 146 49 190 51 10 1 62 -28 115 -63z m2504 49 c93 -19 156 -56 256
-150 47 -44 101 -91 119 -103 17 -13 32 -28 32 -33 0 -13 -65 -11 -140 6 -81
18 -80 18 -80 1 0 -29 149 -305 269 -499 74 -118 288 -404 392 -522 116 -132
200 -223 278 -302 50 -51 87 -94 82 -97 -4 -3 -53 21 -108 53 -267 154 -517
372 -682 596 -138 186 -140 189 -272 430 -108 196 -169 291 -223 346 -62 62
-101 83 -191 98 -105 19 -105 19 -50 49 28 16 88 54 135 85 47 31 92 57 100
57 8 0 46 -7 83 -15z m-422 -356 c125 -42 166 -69 190 -127 48 -115 118 -212
185 -255 35 -23 43 -51 24 -88 -11 -19 -40 -26 -54 -12 -45 45 -255 58 -368
23 -34 -11 -75 -20 -90 -20 -15 0 -39 -11 -54 -25 -32 -30 -42 -25 -24 13 38
80 47 95 73 119 34 33 36 63 5 63 -56 -2 -109 -20 -148 -50 -22 -18 -44 -30
-47 -26 -8 8 26 150 49 205 29 68 135 211 157 211 5 0 51 -14 102 -31z m-1715
4 c100 -112 154 -219 169 -339 7 -59 -3 -73 -31 -43 -43 48 -168 85 -181 53
-3 -9 6 -27 25 -47 30 -31 82 -124 82 -146 0 -15 -10 -14 -29 3 -9 8 -61 28
-116 45 -81 25 -116 31 -193 31 -91 0 -195 -20 -207 -41 -17 -27 -65 7 -65 46
0 16 15 36 46 61 57 47 122 138 162 225 37 80 64 102 176 140 94 33 139 36
162 12z m434 -212 c14 -13 36 -28 50 -33 24 -10 24 -11 5 -18 -29 -12 -35 -12
-35 3 0 8 -11 19 -24 25 -13 6 -31 25 -40 43 -21 42 -20 60 1 29 10 -14 29
-36 43 -49z m750 17 c0 -16 -3 -19 -11 -11 -6 6 -8 16 -5 22 11 17 16 13 16
-11z m-55 -68 c-10 -11 -20 -18 -23 -16 -5 6 21 35 32 36 5 0 1 -9 -9 -20z
m-585 -25 c11 -13 6 -15 -31 -15 -41 1 -43 2 -25 15 25 19 40 19 56 0z m525
-5 c-3 -5 -16 -10 -28 -10 -18 0 -19 2 -7 10 20 13 43 13 35 0z m-133 -170
c203 -84 274 -166 285 -328 4 -51 2 -86 -6 -100 -11 -20 -17 -22 -64 -16 -29
3 -79 17 -113 30 -101 40 -125 29 -65 -29 21 -20 43 -37 50 -37 6 0 11 -4 11
-10 0 -17 -17 -11 -123 44 -104 55 -105 55 -148 41 -70 -21 -132 -47 -161 -68
-18 -13 -34 -18 -52 -13 -56 14 -19 74 101 163 41 30 71 58 68 64 -15 24 -80
2 -188 -63 -65 -39 -68 -40 -82 -22 -20 26 -18 51 3 72 34 34 108 80 185 117
86 41 96 50 70 64 -35 18 -127 -8 -212 -61 -54 -33 -71 -35 -71 -7 0 35 17 55
84 98 60 39 244 110 289 111 10 0 73 -23 139 -50z m-667 -214 c17 -12 20 -28
21 -113 1 -71 7 -114 22 -155 32 -89 9 -87 -76 4 -29 32 -36 36 -53 25 -12 -7
-15 -15 -9 -21 6 -6 10 -19 10 -30 0 -12 11 -41 25 -65 14 -23 25 -46 25 -51
0 -4 -37 -19 -82 -34 -108 -36 -153 -60 -335 -177 -205 -132 -236 -134 -109
-7 76 76 205 168 289 208 26 12 47 25 47 29 0 4 -10 13 -23 20 -40 21 -172
-21 -372 -120 -77 -38 -145 -69 -151 -69 -5 0 -29 -9 -52 -20 -22 -11 -48 -20
-56 -20 -8 0 -25 -5 -38 -10 -13 -6 -66 -16 -118 -24 -116 -17 -124 -12 -115
74 19 160 68 272 157 356 127 120 272 143 588 94 165 -25 249 -7 325 70 27 28
52 50 55 50 3 0 15 -6 25 -14z m1149 -32 c75 -90 123 -99 336 -68 58 8 157 15
220 16 96 0 125 -3 175 -22 175 -66 273 -201 301 -415 19 -138 25 -135 -186
-88 -41 9 -82 22 -91 30 -8 7 -21 13 -27 13 -7 0 -20 8 -31 18 -10 9 -39 35
-65 56 -35 30 -46 47 -46 68 0 15 -2 28 -4 28 -2 0 -11 3 -20 6 -11 4 -16 1
-16 -10 0 -9 -3 -16 -6 -16 -5 0 -45 19 -52 25 -6 5 22 54 34 59 16 6 64 -31
64 -49 0 -10 23 -14 96 -17 53 -2 98 0 100 3 8 14 -92 79 -121 79 -8 0 -15 4
-15 9 0 11 -49 21 -55 10 -3 -4 -20 -3 -38 2 -35 11 -202 13 -218 3 -6 -3 -8
-12 -5 -20 3 -8 1 -14 -4 -14 -6 0 -10 9 -10 19 0 28 -21 37 -37 16 -8 -12
-13 -14 -13 -6 0 11 -3 11 -16 0 -14 -11 -18 -11 -28 2 -8 12 -34 17 -93 21
-45 2 -89 10 -97 17 -20 17 -29 10 -60 -45 -34 -62 -33 -70 12 -73 74 -5 122
-17 122 -31 0 -5 18 -11 39 -15 44 -7 150 -67 221 -124 63 -50 150 -143 150
-160 0 -22 0 -22 -248 137 -103 66 -172 99 -276 133 -53 17 -98 34 -101 39 -2
4 0 22 5 41 24 81 31 166 21 249 -10 73 -9 86 6 102 24 27 35 23 77 -28z
m-3208 -49 c-3 -8 -9 -22 -12 -30 -4 -10 0 -15 10 -15 19 0 20 -9 2 -32 -17
-23 -26 -23 -26 2 0 26 -17 26 -25 0 -3 -11 -15 -25 -26 -30 -10 -6 -19 -18
-19 -28 -1 -20 -24 -54 -33 -46 -3 3 1 17 9 32 8 15 14 35 14 44 0 9 9 20 20
23 11 3 20 11 20 17 0 13 52 76 64 77 4 1 5 -6 2 -14z m-156 -211 c0 -10 -6
-14 -15 -11 -8 4 -17 2 -20 -3 -7 -12 -25 -13 -25 -2 0 7 36 28 53 31 4 0 7
-6 7 -15z m100 1 c0 -8 -4 -15 -10 -15 -5 0 -7 7 -4 15 4 8 8 15 10 15 2 0 4
-7 4 -15z m3316 -6 c3 -6 15 -8 26 -6 11 3 36 -2 55 -11 33 -16 37 -16 46 -1
9 15 12 15 29 0 22 -18 24 -51 3 -51 -8 0 -26 5 -40 12 -19 9 -28 9 -37 0 -15
-15 -51 -15 -66 0 -9 9 -13 8 -17 -4 -6 -15 -9 -15 -35 0 -33 19 -30 31 8 33
24 2 24 2 5 6 -23 4 -29 14 -16 26 10 11 31 8 39 -4z m-3351 -35 c-13 -13 -45
-10 -45 5 0 14 11 18 35 13 21 -4 22 -6 10 -18z m3783 9 c-24 -4 -26 -7 -18
-28 6 -15 6 -27 0 -30 -16 -10 -11 -35 8 -42 9 -3 25 -15 34 -27 15 -18 20
-19 38 -8 12 7 20 8 20 2 0 -5 -4 -10 -10 -10 -5 0 -10 -4 -10 -10 0 -5 9 -10
19 -10 11 0 23 -4 26 -10 4 -6 -5 -10 -19 -10 -14 0 -26 5 -26 10 0 6 -7 10
-15 10 -9 0 -32 10 -53 23 -53 33 -119 62 -184 83 -55 17 -71 35 -47 50 6 3
16 1 22 -5 6 -6 18 -11 27 -11 9 0 21 -5 27 -11 7 -7 25 -13 42 -14 25 -2 30
1 28 18 -1 11 3 22 9 24 19 6 26 -28 10 -46 -14 -15 -13 -17 7 -19 20 -1 22 2
19 38 l-4 40 38 -1 c30 -2 33 -3 12 -6z m122 -8 c0 -8 7 -15 15 -15 8 0 15 -4
15 -10 0 -20 -27 -9 -38 15 -7 15 -8 25 -2 25 6 0 10 -7 10 -15z m-4003 -27
c-3 -8 -6 -5 -6 6 -1 11 2 17 5 13 3 -3 4 -12 1 -19z m2893 -30 c57 -26 99
-80 80 -103 -15 -18 -40 -20 -40 -2 0 17 -57 71 -97 91 -76 38 -24 51 57 14z
m-2859 -19 c-11 -12 -24 -19 -28 -15 -5 4 3 16 16 27 31 25 39 17 12 -12z
m-141 -9 c0 -5 -4 -10 -10 -10 -5 0 -10 5 -10 10 0 6 5 10 10 10 6 0 10 -4 10
-10z m-37 -45 c-6 -18 -19 -19 -29 -4 -7 12 15 31 28 23 4 -3 5 -11 1 -19z
m95 -29 c-7 -8 -15 -12 -17 -11 -5 6 10 25 20 25 5 0 4 -6 -3 -14z m-164 -25
c-22 -21 -27 -21 -18 3 3 9 13 16 22 16 13 0 12 -3 -4 -19z m136 -5 c0 -3 -4
-8 -10 -11 -5 -3 -10 -1 -10 4 0 6 5 11 10 11 6 0 10 -2 10 -4z m4097 -2 c-3
-3 -12 -4 -19 -1 -8 3 -5 6 6 6 11 1 17 -2 13 -5z m-1278 -30 c45 -18 83 -62
92 -108 4 -17 16 -75 28 -130 26 -122 26 -118 -5 -155 -29 -34 -26 -46 13 -56
53 -13 260 -110 348 -163 96 -58 155 -102 223 -166 l42 -40 0 -102 c0 -64 -4
-105 -11 -110 -6 -3 -38 20 -73 53 -68 67 -157 132 -258 187 -54 30 -71 35
-87 27 -25 -14 -41 -14 -41 -1 0 6 12 10 27 10 25 0 26 0 8 20 -10 11 -25 20
-34 20 -9 0 -31 14 -49 30 -35 30 -122 68 -179 77 -44 7 -165 -33 -203 -69
-17 -15 -36 -28 -42 -28 -5 0 -27 -13 -47 -29 -20 -16 -65 -43 -101 -61 -76
-38 -218 -141 -275 -199 -60 -63 -65 -58 -65 68 0 89 3 112 18 129 25 29 147
122 229 175 70 46 329 167 356 167 7 0 22 6 32 14 18 13 18 15 -8 46 -15 17
-27 37 -27 45 0 30 42 221 51 232 7 8 7 18 0 32 -11 19 -16 101 -6 101 2 0 22
-7 44 -16z m-3021 -25 c-14 -18 -24 -25 -27 -18 -2 7 1 15 8 17 6 2 11 10 11
18 0 8 7 14 15 14 12 0 11 -6 -7 -31z m162 16 c0 -8 -7 -15 -15 -15 -8 0 -15
7 -15 15 0 8 7 15 15 15 8 0 15 -7 15 -15z m-113 -41 c-9 -9 -28 6 -21 18 4 6
10 6 17 -1 6 -6 8 -13 4 -17z m53 -8 c0 -3 -4 -8 -10 -11 -5 -3 -10 -1 -10 4
0 6 5 11 10 11 6 0 10 -2 10 -4z m897 -39 c-5 -31 -39 -119 -205 -527 -149
-366 -233 -677 -274 -1015 -17 -142 -17 -591 1 -750 18 -164 65 -455 97 -600
14 -66 32 -147 40 -180 7 -34 19 -81 27 -105 41 -123 27 -139 -35 -42 -138
214 -270 626 -307 957 -6 50 -15 135 -22 190 -18 161 -7 648 19 811 80 493
249 895 484 1149 69 74 152 144 172 145 5 0 6 -15 3 -33z m4144 6 c19 -15 69
-63 113 -107 253 -261 439 -719 508 -1256 17 -137 17 -606 0 -760 -46 -400
-121 -695 -244 -950 -49 -104 -117 -212 -128 -205 -5 3 0 36 11 73 69 241 135
580 171 887 17 147 17 680 0 795 -62 409 -131 647 -322 1110 -153 370 -177
440 -152 440 5 0 24 -12 43 -27z m-5071 -12 c0 -8 -52 -32 -57 -27 -9 9 31 44
43 39 8 -3 14 -8 14 -12z m-99 -71 c6 0 -1 -11 -15 -25 -14 -14 -28 -25 -32
-25 -4 0 -13 -8 -20 -17 -7 -10 -15 -15 -19 -11 -4 4 9 21 29 39 20 17 36 39
35 48 -3 30 4 46 8 19 2 -16 9 -28 14 -28z m-96 19 c-8 -12 -35 -12 -35 0 0
11 22 20 33 14 4 -2 5 -9 2 -14z m-61 -34 c-4 -8 -10 -15 -15 -15 -5 0 -9 -7
-9 -15 0 -8 -7 -15 -16 -15 -17 0 -17 1 21 47 14 17 26 16 19 -2z m46 -29 c0
-3 -4 -8 -10 -11 -5 -3 -10 -1 -10 4 0 6 5 11 10 11 6 0 10 -2 10 -4z m-113
-73 c-3 -2 -15 1 -28 7 l-22 13 24 13 c22 11 24 11 27 -8 2 -11 1 -22 -1 -25z
m-67 -18 c0 -8 -7 -15 -15 -15 -26 0 -18 20 13 29 1 1 2 -6 2 -14z m-46 -40
c-4 -9 -15 -20 -25 -26 -11 -5 -19 -20 -19 -32 0 -18 -2 -19 -10 -7 -14 22
-12 40 5 40 8 0 15 6 15 14 0 13 13 23 32 25 4 1 5 -6 2 -14z m-14 -165 c0 -5
-4 -10 -10 -10 -5 0 -10 5 -10 10 0 6 5 10 10 10 6 0 10 -4 10 -10z m1540 -72
c-20 -90 -23 -120 -23 -216 -1 -74 2 -95 16 -109 14 -15 17 -15 17 -2 0 8 -6
21 -12 28 -11 10 -10 15 2 24 9 7 37 42 64 79 27 37 55 69 62 72 7 3 -7 -36
-33 -87 -25 -51 -50 -100 -54 -109 -5 -10 -9 -22 -9 -28 0 -6 -8 -29 -19 -53
-28 -65 -67 -165 -92 -242 -13 -38 -27 -71 -31 -73 -5 -2 -8 -21 -8 -43 0 -21
-4 -39 -10 -39 -5 0 -10 -9 -10 -19 0 -11 -9 -40 -19 -65 -11 -25 -23 -62 -27
-82 -7 -39 -23 -29 -24 16 0 14 -7 34 -15 44 -14 18 -15 14 -16 -45 -2 -123
-17 -129 -18 -7 -1 68 3 119 9 123 6 3 10 23 10 43 0 20 7 60 16 87 9 28 16
60 15 72 0 13 6 49 15 80 9 32 20 76 24 98 5 22 19 74 30 115 12 41 24 87 27
103 3 15 9 30 14 33 5 3 9 18 9 33 0 15 4 31 8 37 5 5 21 41 37 79 15 39 32
74 37 80 4 5 8 18 9 30 0 11 3 15 5 8 3 -6 0 -35 -6 -65z m-1495 32 c3 -5 -1
-10 -10 -10 -9 0 -13 5 -10 10 3 6 8 10 10 10 2 0 7 -4 10 -10z m515 -9 c0 -6
-4 -13 -10 -16 -5 -3 -10 1 -10 9 0 9 5 16 10 16 6 0 10 -4 10 -9z m-463 -17
c-3 -3 -12 -4 -19 -1 -8 3 -5 6 6 6 11 1 17 -2 13 -5z m5230 -46 c-3 -7 -5 -2
-5 12 0 14 2 19 5 13 2 -7 2 -19 0 -25z m-3266 -60 c-6 -17 -11 -40 -11 -50 0
-11 -9 -39 -20 -63 -17 -37 -18 -48 -8 -65 14 -22 28 -26 28 -9 0 6 14 27 30
46 45 51 39 25 -19 -77 -24 -43 -81 -188 -81 -206 0 -8 -4 -14 -10 -14 -5 0
-10 -11 -10 -25 0 -14 -4 -25 -8 -25 -4 0 -14 -21 -21 -47 -8 -27 -25 -70 -38
-97 -12 -28 -23 -60 -23 -73 0 -14 -6 -23 -15 -23 -17 0 -21 45 -5 55 6 3 10
33 10 65 0 33 6 74 14 92 8 18 19 66 25 106 11 73 44 191 62 224 5 10 9 26 9
36 0 10 4 22 8 28 5 5 15 25 22 44 27 74 44 110 52 110 4 0 9 8 9 18 1 16 2
16 6 -1 3 -10 0 -32 -6 -49z m-1758 35 c-13 -2 -33 -2 -45 0 -13 2 -3 4 22 4
25 0 35 -2 23 -4z m3307 -79 c0 -8 -6 -14 -14 -14 -8 0 -17 -6 -19 -12 -3 -8
-6 -5 -6 5 -1 29 -26 14 -29 -18 -3 -19 -6 -24 -12 -15 -6 10 -13 10 -39 -1
-50 -22 -38 -52 45 -115 20 -16 50 -41 66 -56 17 -15 34 -28 38 -28 16 0 19
-32 6 -65 -24 -58 -34 -170 -41 -450 -3 -148 -10 -400 -15 -560 -5 -159 -14
-486 -21 -725 -6 -239 -17 -624 -23 -855 l-13 -420 -52 -92 c-29 -51 -54 -93
-56 -93 -2 0 -27 42 -56 93 l-53 92 -7 255 c-4 140 -10 347 -13 460 -3 113
-11 369 -16 570 -46 1687 -44 1637 -69 1705 l-22 60 28 23 c87 73 172 157 176
173 3 11 14 19 27 19 12 0 42 18 67 39 54 49 123 62 123 25z m-351 -13 c-15
-5 -22 6 -14 19 6 9 10 9 16 -1 5 -8 4 -15 -2 -18z m63 17 c27 -16 68 -53 68
-62 0 -3 -7 -6 -15 -6 -8 0 -15 5 -15 10 0 15 -29 12 -46 -5 -11 -10 -13 -25
-9 -45 4 -19 3 -30 -4 -30 -6 0 -11 11 -11 25 0 14 -4 25 -10 25 -19 0 -10 17
15 28 14 6 25 16 25 22 0 6 -11 15 -25 20 -27 10 -34 30 -10 30 8 0 25 -6 37
-12z m-2835 -40 c-3 -8 -6 -5 -6 6 -1 11 2 17 5 13 3 -3 4 -12 1 -19z m2745
-2 c11 -17 2 -19 -36 -5 -24 9 -32 16 -23 21 14 9 49 0 59 -16z m428 5 c0 -16
-28 -20 -34 -5 -4 9 1 14 14 14 11 0 20 -4 20 -9z m-80 -56 c0 -8 -4 -15 -10
-15 -5 0 -10 7 -10 15 0 8 5 15 10 15 6 0 10 -7 10 -15z m-30 -30 c0 -15 -21
-12 -30 5 -11 20 -10 21 9 10 12 -6 21 -13 21 -15z m-1703 -607 c-3 -7 -5 -2
-5 12 0 14 2 19 5 13 2 -7 2 -19 0 -25z m-20 -45 c-3 -10 -5 -4 -5 12 0 17 2
24 5 18 2 -7 2 -21 0 -30z m-500 -145 c-3 -8 -6 -5 -6 6 -1 11 2 17 5 13 3 -3
4 -12 1 -19z m-15 -55 c-2 -21 -7 -47 -12 -58 -5 -11 -11 -36 -14 -55 -2 -19
-8 -51 -13 -70 -9 -33 -10 -33 -14 -10 -3 14 -3 58 -1 98 3 53 8 72 18 72 9 0
14 11 14 30 0 18 5 30 13 30 9 0 12 -12 9 -37z m1325 -1205 c72 -94 84 -185
67 -488 -8 -138 -11 -155 -27 -158 -39 -8 -57 26 -57 102 0 39 -11 170 -25
291 -26 225 -30 297 -19 308 10 9 17 3 61 -55z m1639 -37 c-4 -47 -14 -140
-22 -207 -8 -67 -19 -179 -24 -250 -10 -137 -20 -158 -65 -152 -17 3 -20 11
-21 48 0 25 -4 126 -8 225 -7 163 -6 187 12 253 14 50 32 87 58 120 69 85 79
80 70 -37z"/>
<path d="M5170 9410 c0 -5 4 -10 9 -10 6 0 13 5 16 10 3 6 -1 10 -9 10 -9 0
-16 -4 -16 -10z"/>
<path d="M5535 9350 c-3 -5 1 -10 10 -10 9 0 13 5 10 10 -3 6 -8 10 -10 10 -2
0 -7 -4 -10 -10z"/>
<path d="M5640 9339 c0 -5 5 -7 10 -4 6 3 10 8 10 11 0 2 -4 4 -10 4 -5 0 -10
-5 -10 -11z"/>
<path d="M5265 9300 c-3 -5 1 -10 9 -10 9 0 16 5 16 10 0 6 -4 10 -9 10 -6 0
-13 -4 -16 -10z"/>
<path d="M5700 9300 c0 -5 5 -10 10 -10 6 0 10 5 10 10 0 6 -4 10 -10 10 -5 0
-10 -4 -10 -10z"/>
<path d="M5876 9173 c-11 -11 -6 -23 9 -23 8 0 15 4 15 9 0 13 -16 22 -24 14z"/>
<path d="M5888 9120 c6 -8 12 -22 12 -33 0 -10 5 -17 13 -14 20 6 14 28 -13
45 -18 11 -21 12 -12 2z"/>
<path d="M5926 9031 c-4 -5 -2 -12 3 -15 5 -4 12 -2 15 3 4 5 2 12 -3 15 -5 4
-12 2 -15 -3z"/>
<path d="M5986 8972 c-3 -6 -1 -14 5 -17 15 -10 25 3 12 16 -7 7 -13 7 -17 1z"/>
<path d="M3801 8401 c-10 -7 -10 -10 -1 -16 6 -4 16 -3 22 3 13 13 -4 23 -21
13z"/>
<path d="M4208 8373 c7 -3 16 -2 19 1 4 3 -2 6 -13 5 -11 0 -14 -3 -6 -6z"/>
<path d="M4652 8310 c0 -14 2 -19 5 -12 2 6 2 18 0 25 -3 6 -5 1 -5 -13z"/>
<path d="M4305 8280 c3 -5 8 -10 11 -10 2 0 4 5 4 10 0 6 -5 10 -11 10 -5 0
-7 -4 -4 -10z"/>
<path d="M4418 8208 c9 -9 15 -9 24 0 9 9 7 12 -12 12 -19 0 -21 -3 -12 -12z"/>
<path d="M3305 8010 c-3 -5 1 -10 9 -10 9 0 16 5 16 10 0 6 -4 10 -9 10 -6 0
-13 -4 -16 -10z"/>
<path d="M3115 7900 c-4 -6 3 -10 14 -10 25 0 27 6 6 13 -8 4 -17 2 -20 -3z"/>
<path d="M3200 7900 c0 -5 5 -10 10 -10 6 0 10 5 10 10 0 6 -4 10 -10 10 -5 0
-10 -4 -10 -10z"/>
<path d="M2805 7700 c-3 -5 3 -10 14 -10 12 0 21 5 21 10 0 6 -6 10 -14 10 -8
0 -18 -4 -21 -10z"/>
<path d="M3201 7524 c0 -11 3 -14 6 -6 3 7 2 16 -1 19 -3 4 -6 -2 -5 -13z"/>
<path d="M3145 7477 c-26 -15 -36 -29 -31 -43 3 -7 -5 -9 -20 -6 -19 3 -24 0
-24 -15 0 -11 -9 -28 -19 -37 -14 -13 -17 -24 -12 -43 9 -35 27 -40 42 -12 9
17 9 24 0 27 -14 5 -15 32 -1 32 6 0 10 -7 10 -15 0 -19 7 -19 26 -1 8 8 11
22 8 30 -4 11 2 19 20 26 20 7 26 16 26 40 0 16 -1 30 -2 29 -2 0 -12 -6 -23
-12z"/>
<path d="M2988 7298 c-16 -17 -28 -34 -28 -38 0 -5 -6 -10 -12 -13 -7 -2 -10
-7 -7 -11 10 -11 38 5 44 25 4 10 12 19 20 19 15 0 26 23 17 37 -4 7 -18 -1
-34 -19z"/>
<path d="M2840 7101 c0 -6 4 -13 10 -16 6 -3 7 1 4 9 -7 18 -14 21 -14 7z"/>
<path d="M6096 7665 c4 -8 8 -15 10 -15 2 0 4 7 4 15 0 8 -4 15 -10 15 -5 0
-7 -7 -4 -15z"/>
<path d="M6168 7620 c29 -33 42 -38 42 -16 0 8 -9 18 -20 21 -11 3 -20 11 -20
16 0 5 -6 9 -14 9 -10 0 -5 -10 12 -30z"/>
<path d="M6220 7509 c0 -18 20 -49 32 -49 9 0 9 3 0 12 -7 7 -12 20 -12 30 0
10 -4 18 -10 18 -5 0 -10 -5 -10 -11z"/>
<path d="M6170 7430 c6 -11 15 -20 20 -20 17 0 11 15 -11 28 -19 12 -19 11 -9
-8z"/>
<path d="M6234 7406 c-21 -18 -49 -36 -61 -40 -13 -4 -23 -14 -23 -21 0 -8 -8
-18 -17 -24 -10 -5 -15 -12 -12 -15 3 -3 19 5 35 19 16 14 54 37 86 53 50 24
55 29 44 44 -12 16 -16 15 -52 -16z"/>
<path d="M4331 7414 c0 -11 3 -14 6 -6 3 7 2 16 -1 19 -3 4 -6 -2 -5 -13z"/>
<path d="M5320 7235 c0 -9 6 -12 15 -9 8 4 12 10 9 15 -8 14 -24 10 -24 -6z"/>
<path d="M5357 7094 c3 -9 0 -20 -8 -25 -10 -6 -2 -9 24 -9 42 0 46 8 17 33
-25 21 -41 22 -33 1z"/>
<path d="M5347 6934 c-14 -14 -6 -24 19 -24 16 0 24 5 22 13 -5 14 -31 21 -41
11z"/>
<path d="M5405 6900 c3 -5 8 -10 11 -10 2 0 4 5 4 10 0 6 -5 10 -11 10 -5 0
-7 -4 -4 -10z"/>
<path d="M4078 6763 c7 -3 16 -2 19 1 4 3 -2 6 -13 5 -11 0 -14 -3 -6 -6z"/>
<path d="M3919 6683 c-13 -15 -12 -15 9 -4 23 12 28 21 13 21 -5 0 -15 -7 -22
-17z"/>
<path d="M5290 6451 c0 -5 -10 -11 -22 -14 -12 -4 -20 -9 -16 -12 7 -7 58 16
58 27 0 4 -4 8 -10 8 -5 0 -10 -4 -10 -9z"/>
<path d="M3390 5550 c0 -5 5 -10 10 -10 6 0 10 5 10 10 0 6 -4 10 -10 10 -5 0
-10 -4 -10 -10z"/>
<path d="M3330 5491 c0 -20 5 -31 14 -31 9 0 12 8 8 25 -7 37 -22 41 -22 6z"/>
<path d="M3266 5415 c-12 -29 -17 -97 -6 -90 4 3 11 -13 15 -35 8 -47 16 -50
32 -12 18 42 25 105 15 132 -9 23 -10 20 -18 -25 l-8 -50 -11 50 c-9 40 -13
46 -19 30z"/>
<path d="M3237 5263 c-4 -3 -7 -14 -7 -24 0 -10 -7 -25 -16 -34 -15 -15 -15
-17 2 -30 17 -12 19 -11 22 16 3 29 15 38 27 19 4 -6 11 -8 16 -4 5 3 2 18 -8
35 -18 30 -25 34 -36 22z"/>
<path d="M3240 5131 c0 -6 -10 -11 -21 -11 -18 0 -20 -4 -15 -27 4 -16 8 -38
9 -50 1 -12 5 -25 10 -29 7 -8 10 7 8 42 -1 11 5 27 13 34 18 14 21 36 6 45
-5 3 -10 1 -10 -4z"/>
<path d="M3871 5574 c0 -11 3 -14 6 -6 3 7 2 16 -1 19 -3 4 -6 -2 -5 -13z"/>
<path d="M3853 5532 c-17 -3 -23 -10 -23 -31 0 -15 -4 -31 -9 -36 -9 -10 -15
-38 -12 -65 2 -19 31 46 31 69 0 10 9 27 21 40 24 25 23 28 -8 23z"/>
<path d="M3780 5339 c0 -11 5 -17 10 -14 6 3 10 13 10 21 0 8 -4 14 -10 14 -5
0 -10 -9 -10 -21z"/>
<path d="M3762 5275 c0 -16 2 -22 5 -12 2 9 2 23 0 30 -3 6 -5 -1 -5 -18z"/>
<path d="M5311 4170 c-3 -931 -1 -1360 6 -1360 6 0 13 15 17 33 7 41 23 615
36 1327 15 767 18 930 26 1123 l7 168 -39 34 c-22 19 -41 34 -44 35 -3 0 -7
-612 -9 -1360z"/>
</g>
</svg>
